<?xml version="1.0" encoding="utf-8"?>
<!-- Generator: Adobe Illustrator 14.0.0, SVG Export Plug-In . SVG Version: 6.00 Build 43363)  -->
<!DOCTYPE svg PUBLIC "-//W3C//DTD SVG 1.1//EN" "http://www.w3.org/Graphics/SVG/1.1/DTD/svg11.dtd">
<svg version="1.1" xmlns="http://www.w3.org/2000/svg" xmlns:xlink="http://www.w3.org/1999/xlink" x="0px" y="0px" width="800px"
	 height="600px" viewBox="0 0 800 600" enable-background="new 0 0 800 600" xml:space="preserve">
<g id="Ebene_1" display="none">
	<g display="inline">
		<defs>
			<rect id="SVGID_1_" x="1.667" y="0.794" width="800.403" height="600.78"/>
		</defs>
		<clipPath id="SVGID_2_">
			<use xlink:href="#SVGID_1_"  overflow="visible"/>
		</clipPath>
		<polygon clip-path="url(#SVGID_2_)" fill="#FF6B63" points="711.025,524.804 802.07,601.574 802.07,424.406 		"/>
		<polygon clip-path="url(#SVGID_2_)" fill="#FF726B" points="703.198,257.309 802.07,354.96 802.07,257.309 		"/>
		<polygon clip-path="url(#SVGID_2_)" fill="#FF6B63" points="743.115,0.794 657.348,126.339 802.07,168.118 802.07,0.794 		"/>
		<polygon clip-path="url(#SVGID_2_)" fill="#FF726B" points="573.298,0.794 446.657,81.391 526.983,149.806 526.783,151.29 
			657.346,126.339 743.116,0.794 		"/>
		<polygon clip-path="url(#SVGID_2_)" fill="#FF8069" points="657.348,126.339 637.634,192.553 512.782,255.52 526.783,151.29 		"/>
		<polygon clip-path="url(#SVGID_2_)" fill="#FF826B" points="526.983,149.806 526.783,151.29 401.868,175.161 446.657,81.391 		"/>
		<polygon clip-path="url(#SVGID_2_)" fill="#FF7B63" points="352.021,0.794 446.657,81.391 573.298,0.794 		"/>
		<polygon clip-path="url(#SVGID_2_)" fill="#FF8D63" points="401.868,175.161 395.672,314.586 310.852,192.553 		"/>
		<polygon clip-path="url(#SVGID_2_)" fill="#FFD46B" points="401.715,424.669 401.909,424.504 401.868,424.406 		"/>
		<polygon clip-path="url(#SVGID_2_)" fill="#FF9B75" points="346.875,601.574 472.094,601.574 317.655,564.374 		"/>
		<polygon clip-path="url(#SVGID_2_)" fill="#FF8D63" points="189.064,601.574 346.875,601.574 317.655,564.374 252.611,548.707 		
			"/>
		<polygon clip-path="url(#SVGID_2_)" fill="#FFB36B" points="1.667,601.574 99.573,511.845 1.667,473.449 		"/>
		<polygon clip-path="url(#SVGID_2_)" fill="#FFED6B" points="1.667,252.754 102.049,302.771 59.004,239.912 1.667,156.194 		"/>
		<polygon clip-path="url(#SVGID_2_)" fill="#FFB36B" points="265.091,417.326 189.064,429.825 186.543,344.882 228.798,298.819 		
			"/>
		<polygon clip-path="url(#SVGID_2_)" fill="#FFED6B" points="1.667,106.851 1.667,156.194 180.488,141.051 84.417,65.696 		"/>
		<polygon clip-path="url(#SVGID_2_)" fill="#FFE66B" points="1.667,0.794 1.667,106.851 84.417,65.697 		"/>
		<polygon clip-path="url(#SVGID_2_)" fill="#FFED6B" points="1.667,0.794 84.417,65.697 214.917,0.794 		"/>
		<polygon clip-path="url(#SVGID_2_)" fill="#FF8D63" points="214.917,0.794 310.852,192.553 352.021,0.794 		"/>
		<polygon clip-path="url(#SVGID_2_)" fill="#FF936B" points="395.672,314.586 326.203,308.021 310.852,192.553 		"/>
		<polygon clip-path="url(#SVGID_2_)" fill="#FF826B" points="472.094,601.574 655.632,601.574 573.298,569.06 		"/>
		<polygon clip-path="url(#SVGID_2_)" fill="#FFAE61" points="1.667,601.574 189.064,601.574 178.98,530.971 99.573,511.845 		"/>
		<polygon clip-path="url(#SVGID_2_)" fill="#FF8069" points="703.198,257.309 573.298,408.675 637.634,192.553 		"/>
		<polygon clip-path="url(#SVGID_2_)" fill="#FF9B75" points="352.021,0.794 310.852,192.553 401.868,175.161 446.657,81.391 		"/>
		<polygon clip-path="url(#SVGID_2_)" fill="#FF8D63" points="401.715,424.669 401.709,424.669 317.655,564.374 472.094,601.574 
			401.909,424.504 		"/>
		<polygon clip-path="url(#SVGID_2_)" fill="#FF936B" points="401.709,424.669 317.655,564.374 252.611,548.707 		"/>
		<polygon clip-path="url(#SVGID_2_)" fill="#FF726B" points="573.298,408.675 711.025,524.804 802.071,424.406 802.071,354.962 		
			"/>
		<polygon clip-path="url(#SVGID_2_)" fill="#FFB36B" points="189.064,429.825 178.98,530.971 99.573,511.845 		"/>
		<polygon clip-path="url(#SVGID_2_)" fill="#FFAE61" points="1.667,473.449 99.573,511.845 1.667,394.275 		"/>
		<polygon clip-path="url(#SVGID_2_)" fill="#F5AC67" points="99.573,511.845 189.065,429.825 95.366,412.046 1.667,394.275 		"/>
		<polygon clip-path="url(#SVGID_2_)" fill="#FFCC80" points="1.667,394.275 95.366,412.046 1.667,252.754 		"/>
		<polygon clip-path="url(#SVGID_2_)" fill="#FFC46B" points="214.917,0.794 180.488,141.052 310.852,192.553 		"/>
		<polygon clip-path="url(#SVGID_2_)" fill="#FFE56B" points="214.917,0.794 84.417,65.697 180.488,141.052 		"/>
		<polygon clip-path="url(#SVGID_2_)" fill="#FF7B63" points="711.025,524.804 573.298,569.06 573.298,408.675 		"/>
		<polygon clip-path="url(#SVGID_2_)" fill="#FF6B63" points="573.298,408.675 802.071,354.962 703.198,257.309 		"/>
		<polygon clip-path="url(#SVGID_2_)" fill="#FF726B" points="573.298,569.06 655.632,601.574 802.071,601.574 711.025,524.804 		
			"/>
		<polygon clip-path="url(#SVGID_2_)" fill="#FF7B63" points="526.783,151.29 512.782,255.52 512.782,255.524 395.672,314.586 
			401.868,175.161 		"/>
		<polygon clip-path="url(#SVGID_2_)" fill="#FF8D63" points="446.365,387.519 339.118,405.151 326.203,308.021 395.672,314.586 		
			"/>
		<polygon clip-path="url(#SVGID_2_)" fill="#FF8069" points="512.782,255.524 512.782,398.592 446.365,387.519 395.672,314.586 		
			"/>
		<polygon clip-path="url(#SVGID_2_)" fill="#FF7B63" points="637.634,192.553 573.298,408.675 512.782,398.592 512.782,255.52 		
			"/>
		<polygon clip-path="url(#SVGID_2_)" fill="#FF826B" points="573.298,408.675 573.298,569.06 512.782,398.592 		"/>
		<polygon clip-path="url(#SVGID_2_)" fill="#FF7B63" points="472.094,601.574 573.298,569.06 512.782,398.592 446.365,387.519 		
			"/>
		<polygon clip-path="url(#SVGID_2_)" fill="#FF936B" points="401.909,424.504 472.094,601.574 446.365,387.519 		"/>
		<polygon clip-path="url(#SVGID_2_)" fill="#FF6B63" points="637.634,192.554 703.198,257.309 802.07,257.309 802.07,168.118 		"/>
		<polygon clip-path="url(#SVGID_2_)" fill="#FF726B" points="637.634,192.554 802.07,168.118 657.348,126.339 		"/>
		<polygon clip-path="url(#SVGID_2_)" fill="#FF9B75" points="446.365,387.519 401.909,424.504 401.868,424.406 401.715,424.669 
			401.709,424.669 252.611,548.707 265.091,417.326 339.118,405.156 339.118,405.151 		"/>
		<polygon clip-path="url(#SVGID_2_)" fill="#F5AC67" points="189.064,429.825 178.98,530.971 189.064,601.574 252.611,548.707 
			265.091,417.326 		"/>
		<polygon clip-path="url(#SVGID_2_)" fill="#FFC46B" points="95.366,412.046 121.001,330.439 102.06,302.777 102.049,302.772 
			1.667,252.754 		"/>
		<polygon clip-path="url(#SVGID_2_)" fill="#F7BD67" points="189.064,429.825 95.366,412.046 121.001,330.439 		"/>
		<polygon clip-path="url(#SVGID_2_)" fill="#FFCC80" points="189.064,429.825 121.001,330.439 102.06,302.778 125.947,314.683 
			186.543,344.882 		"/>
		<polygon clip-path="url(#SVGID_2_)" fill="#FFE75C" points="1.667,156.194 59.004,239.912 102.049,302.771 102.06,302.778 
			125.947,314.684 180.488,141.051 		"/>
		<polygon clip-path="url(#SVGID_2_)" fill="#FFC46B" points="186.543,344.882 125.947,314.683 180.488,141.052 		"/>
		<polygon clip-path="url(#SVGID_2_)" fill="#FFCC80" points="228.798,298.819 186.543,344.882 180.488,141.052 		"/>
		<polygon clip-path="url(#SVGID_2_)" fill="#FFAE61" points="339.118,405.151 339.118,405.156 265.091,417.326 228.798,298.819 
			326.203,308.021 		"/>
		<polygon clip-path="url(#SVGID_2_)" fill="#FFC46B" points="326.203,308.021 228.799,298.819 310.852,192.553 		"/>
		<polygon clip-path="url(#SVGID_2_)" fill="#F7BD67" points="310.852,192.553 228.798,298.819 180.488,141.052 		"/>
		<g clip-path="url(#SVGID_2_)">
			<defs>
				<rect id="SVGID_3_" x="1.667" y="0.794" width="800.403" height="600.78"/>
			</defs>
			<clipPath id="SVGID_4_">
				<use xlink:href="#SVGID_3_"  overflow="visible"/>
			</clipPath>
			<g opacity="0.52" clip-path="url(#SVGID_4_)">
				<g>
					<defs>
						<rect id="SVGID_5_" x="1.667" y="0.794" width="337.451" height="600.78"/>
					</defs>
					<clipPath id="SVGID_6_">
						<use xlink:href="#SVGID_5_"  overflow="visible"/>
					</clipPath>
					<g clip-path="url(#SVGID_6_)">
						<defs>
							<polygon id="SVGID_7_" points="1.667,0.794 1.667,601.574 189.064,601.574 252.611,548.707 265.091,417.326 339.118,405.156 
								310.852,192.553 214.917,0.794 							"/>
						</defs>
						<clipPath id="SVGID_8_">
							<use xlink:href="#SVGID_7_"  overflow="visible"/>
						</clipPath>
						<defs>
							
								<filter id="Adobe_OpacityMaskFilter" filterUnits="userSpaceOnUse" x="-272.252" y="-176.108" width="885.288" height="954.585">
								<feColorMatrix  type="matrix" values="1 0 0 0 0  0 1 0 0 0  0 0 1 0 0  0 0 0 1 0"/>
							</filter>
						</defs>
						<mask maskUnits="userSpaceOnUse" x="-272.252" y="-176.108" width="885.288" height="954.585" id="SVGID_9_">
							<g filter="url(#Adobe_OpacityMaskFilter)">
								
									<linearGradient id="SVGID_10_" gradientUnits="userSpaceOnUse" x1="-299.3604" y1="790.3018" x2="-298.7444" y2="790.3018" gradientTransform="matrix(-696.0696 -861.0862 -861.0862 696.0696 472579.7188 -807248.25)">
									<stop  offset="0" style="stop-color:#B3B3B3"/>
									<stop  offset="0.6431" style="stop-color:#404040"/>
									<stop  offset="1" style="stop-color:#000000"/>
								</linearGradient>
								<polygon clip-path="url(#SVGID_8_)" fill="url(#SVGID_10_)" points="135.029,778.477 -272.252,238.225 205.755,-176.108 
									613.036,364.144 								"/>
							</g>
						</mask>
						
							<linearGradient id="SVGID_11_" gradientUnits="userSpaceOnUse" x1="-299.3604" y1="790.3018" x2="-298.7444" y2="790.3018" gradientTransform="matrix(-696.0696 -861.0862 -861.0862 696.0696 472579.7188 -807248.25)">
							<stop  offset="0" style="stop-color:#FFFFFF"/>
							<stop  offset="0.6431" style="stop-color:#FFFFFF"/>
							<stop  offset="1" style="stop-color:#FFFFFF"/>
						</linearGradient>
						<polygon clip-path="url(#SVGID_8_)" mask="url(#SVGID_9_)" fill="url(#SVGID_11_)" points="135.029,778.477 -272.252,238.225 
							205.755,-176.108 613.036,364.144 						"/>
					</g>
				</g>
			</g>
		</g>
		<g clip-path="url(#SVGID_2_)">
			<defs>
				<polygon id="SVGID_12_" points="214.917,0.794 310.852,192.553 339.118,405.156 265.091,417.326 252.611,548.707 
					189.064,601.574 655.632,601.574 573.298,569.06 512.782,398.592 512.782,255.52 526.783,151.29 446.657,81.391 573.298,0.794 
									"/>
			</defs>
			<clipPath id="SVGID_13_">
				<use xlink:href="#SVGID_12_"  overflow="visible"/>
			</clipPath>
			<defs>
				
					<filter id="Adobe_OpacityMaskFilter_1_" filterUnits="userSpaceOnUse" x="-90.717" y="-249.03" width="1026.13" height="1100.43">
					<feColorMatrix  type="matrix" values="1 0 0 0 0  0 1 0 0 0  0 0 1 0 0  0 0 0 1 0"/>
				</filter>
			</defs>
			<mask maskUnits="userSpaceOnUse" x="-90.717" y="-249.03" width="1026.13" height="1100.43" id="SVGID_14_">
				<g filter="url(#Adobe_OpacityMaskFilter_1_)">
					
						<linearGradient id="SVGID_15_" gradientUnits="userSpaceOnUse" x1="-299.187" y1="790.4678" x2="-298.5748" y2="790.4678" gradientTransform="matrix(-546.0546 519.0519 519.0519 546.0546 -572985.5 -276287.7812)">
						<stop  offset="0" style="stop-color:#B3B3B3"/>
						<stop  offset="0.6431" style="stop-color:#404040"/>
						<stop  offset="1" style="stop-color:#000000"/>
					</linearGradient>
					<polygon clip-path="url(#SVGID_13_)" fill="url(#SVGID_15_)" points="935.413,316.406 410.527,851.399 -90.717,285.962 
						434.169,-249.03 					"/>
				</g>
			</mask>
			
				<linearGradient id="SVGID_16_" gradientUnits="userSpaceOnUse" x1="-299.187" y1="790.4678" x2="-298.5748" y2="790.4678" gradientTransform="matrix(-546.0546 519.0519 519.0519 546.0546 -572985.5 -276287.7812)">
				<stop  offset="0" style="stop-color:#FFFFFF"/>
				<stop  offset="0.6431" style="stop-color:#FFFFFF"/>
				<stop  offset="1" style="stop-color:#FFFFFF"/>
			</linearGradient>
			<polygon clip-path="url(#SVGID_13_)" mask="url(#SVGID_14_)" fill="url(#SVGID_16_)" points="935.413,316.406 410.527,851.399 
				-90.717,285.962 434.169,-249.03 			"/>
		</g>
		<g clip-path="url(#SVGID_2_)">
			<defs>
				<polygon id="SVGID_17_" points="573.298,0.794 446.657,81.391 526.783,151.29 512.782,255.52 512.782,398.592 573.298,569.06 
					655.632,601.574 802.07,601.574 802.07,0.794 				"/>
			</defs>
			<clipPath id="SVGID_18_">
				<use xlink:href="#SVGID_17_"  overflow="visible"/>
			</clipPath>
			<defs>
				
					<filter id="Adobe_OpacityMaskFilter_2_" filterUnits="userSpaceOnUse" x="241.459" y="-138.782" width="765.811" height="879.933">
					<feColorMatrix  type="matrix" values="1 0 0 0 0  0 1 0 0 0  0 0 1 0 0  0 0 0 1 0"/>
				</filter>
			</defs>
			<mask maskUnits="userSpaceOnUse" x="241.459" y="-138.782" width="765.811" height="879.933" id="SVGID_19_">
				<g filter="url(#Adobe_OpacityMaskFilter_2_)">
					
						<linearGradient id="SVGID_20_" gradientUnits="userSpaceOnUse" x1="-299.0195" y1="790.6611" x2="-298.4232" y2="790.6611" gradientTransform="matrix(-771.0771 -336.0337 -336.0337 771.0771 36088.2031 -709691)">
						<stop  offset="0" style="stop-color:#B3B3B3"/>
						<stop  offset="0.6431" style="stop-color:#404040"/>
						<stop  offset="1" style="stop-color:#000000"/>
					</linearGradient>
					<polygon clip-path="url(#SVGID_18_)" fill="url(#SVGID_20_)" points="745.344,741.151 241.459,505.686 503.385,-138.782 
						1007.27,96.683 					"/>
				</g>
			</mask>
			
				<linearGradient id="SVGID_21_" gradientUnits="userSpaceOnUse" x1="-299.02" y1="790.6602" x2="-298.4237" y2="790.6602" gradientTransform="matrix(-771.0771 -336.0336 -336.0336 771.0771 36087.1719 -709691)">
				<stop  offset="0" style="stop-color:#6888FF"/>
				<stop  offset="0.6431" style="stop-color:#FFFFFF"/>
				<stop  offset="1" style="stop-color:#FFFFFF"/>
			</linearGradient>
			<polygon clip-path="url(#SVGID_18_)" mask="url(#SVGID_19_)" fill="url(#SVGID_21_)" points="745.344,741.151 241.459,505.686 
				503.385,-138.782 1007.27,96.683 			"/>
		</g>
	</g>
</g>
<g id="Ebene_2">
	<rect x="-157.882" y="559.577" display="none" fill="#FFFFFF" width="94.496" height="19.499"/>
	<rect x="-94.885" y="606.075" fill="#FFFFFF" width="55.497" height="29.998"/>
	<linearGradient id="SVGID_22_" gradientUnits="userSpaceOnUse" x1="458.3027" y1="386.584" x2="458.3027" y2="437.5811">
		<stop  offset="0.4785" style="stop-color:#42210B"/>
		<stop  offset="1" style="stop-color:#1F0012"/>
	</linearGradient>
	<rect x="116.605" y="386.584" fill="url(#SVGID_22_)" width="683.395" height="50.997"/>
	<linearGradient id="SVGID_23_" gradientUnits="userSpaceOnUse" x1="174.4561" y1="216.085" x2="174.4561" y2="267.082">
		<stop  offset="0" style="stop-color:#42210B"/>
		<stop  offset="1" style="stop-color:#1A1A1A"/>
	</linearGradient>
	<rect y="216.085" fill="url(#SVGID_23_)" width="348.912" height="50.997"/>
	<linearGradient id="SVGID_24_" gradientUnits="userSpaceOnUse" x1="625.5439" y1="218.585" x2="625.5439" y2="269.582">
		<stop  offset="0" style="stop-color:#42210B"/>
		<stop  offset="1" style="stop-color:#1A1A1A"/>
	</linearGradient>
	<rect x="451.088" y="218.585" fill="url(#SVGID_24_)" width="348.912" height="50.997"/>
	<linearGradient id="SVGID_25_" gradientUnits="userSpaceOnUse" x1="132.4585" y1="61.5933" x2="132.4585" y2="112.5903">
		<stop  offset="0" style="stop-color:#42210B"/>
		<stop  offset="1" style="stop-color:#1A1A1A"/>
	</linearGradient>
	<rect y="61.593" fill="url(#SVGID_25_)" width="264.917" height="50.997"/>
	<linearGradient id="SVGID_26_" gradientUnits="userSpaceOnUse" x1="583.5469" y1="60.1016" x2="583.5469" y2="111.0981">
		<stop  offset="0" style="stop-color:#42210B"/>
		<stop  offset="1" style="stop-color:#1A1A1A"/>
	</linearGradient>
	<rect x="367.092" y="60.102" fill="url(#SVGID_26_)" width="432.908" height="50.997"/>
	<radialGradient id="SVGID_27_" cx="307.8447" cy="521.3281" r="41.248" gradientUnits="userSpaceOnUse">
		<stop  offset="0" style="stop-color:#FFDFFE"/>
		<stop  offset="0.3596" style="stop-color:#E99FFF"/>
		<stop  offset="0.4831" style="stop-color:#E593FF"/>
		<stop  offset="0.7084" style="stop-color:#D972FF"/>
		<stop  offset="1" style="stop-color:#C63FFF"/>
	</radialGradient>
	<circle display="none" fill="url(#SVGID_27_)" cx="307.845" cy="521.329" r="41.248"/>
</g>
</svg>
